<svg width="16" height="16" viewBox="0 0 16 16" fill="none" xmlns="http://www.w3.org/2000/svg">
<path d="M7.04617 0.692322C3.16102 0.692322 0 3.61018 0 7.19648C0 10.783 3.16102 13.7006 7.04617 13.7006C10.9315 13.7006 14.0923 10.783 14.0923 7.19648C14.0923 3.61018 10.9315 0.692322 7.04617 0.692322ZM7.04617 12.4999C3.87821 12.4999 1.30083 10.1208 1.30083 7.1965C1.30083 4.27224 3.87821 1.89309 7.04617 1.89309C10.2141 1.89309 12.7915 4.27221 12.7915 7.19648C12.7915 10.1207 10.2141 12.4999 7.04617 12.4999Z" fill="#363636"/>
<path d="M15.8097 14.4368L12.0806 10.9946C11.8265 10.76 11.415 10.76 11.1609 10.9946C10.9068 11.2289 10.9068 11.6092 11.1609 11.8435L14.89 15.2857C15.017 15.403 15.1833 15.4616 15.3498 15.4616C15.5161 15.4616 15.6826 15.403 15.8097 15.2857C16.0638 15.0514 16.0638 14.6711 15.8097 14.4368Z" fill="#363636"/>
</svg>
